<svg id="Layer_1" data-name="Layer 1" xmlns="http://www.w3.org/2000/svg" viewBox="0 0 262.41 146.25"><defs><style>.cls-1{fill:#fff;}.cls-2{fill:#7ec2eb;}</style></defs><title>Logo</title><path class="cls-1" d="M239.08,432.44l-48.69-65.06a8.06,8.06,0,0,1,0-9.66l48.69-65.06a8.06,8.06,0,0,1,6.45-3.23H205.4a9.26,9.26,0,0,0-7.41,3.71L150.19,357a9.26,9.26,0,0,0,0,11.1L198,432a9.26,9.26,0,0,0,7.41,3.71h40.13A8.06,8.06,0,0,1,239.08,432.44Z" transform="translate(-148.35 -289.42)"/><path class="cls-1" d="M408.91,357l-47.8-63.86a9.26,9.26,0,0,0-7.41-3.71H313a8.06,8.06,0,0,1,6.45,3.23l48.69,65.06a8.06,8.06,0,0,1,0,9.66l-48.69,65.06a8.06,8.06,0,0,1-6.45,3.23H353.7a9.26,9.26,0,0,0,7.41-3.71l47.8-63.86A9.26,9.26,0,0,0,408.91,357Z" transform="translate(-148.35 -289.42)"/><path class="cls-2" d="M309.38,430L225.26,324.43a1.86,1.86,0,0,1,0-2.28l20.92-27.39a1.86,1.86,0,0,1,2.93,0L333.2,400.33a1.86,1.86,0,0,1,0,2.28L312.31,430A1.86,1.86,0,0,1,309.38,430Z" transform="translate(-148.35 -289.42)"/></svg>